<?xml version="1.0" encoding="UTF-8"?>
<svg version="1.1" xmlns="http://www.w3.org/2000/svg" width="922" height="271">
<path d="M0 0 C-0.1875 2.3125 -0.1875 2.3125 -1 5 C-4.49114086 7.45323412 -8.12469568 8.88241578 -12.125 10.3125 C-30.62313856 17.33262691 -44.58540799 29.56139053 -56.3125 45.3125 C-56.95840088 46.17770264 -57.60430176 47.04290527 -58.26977539 47.93432617 C-64.10687766 55.89703246 -69.12220741 64.1997967 -73.8359375 72.86572266 C-74.88062631 74.78113154 -75.94998207 76.67931816 -77.03125 78.57421875 C-83.91460475 90.94450997 -89.40739207 104.0096955 -95 117 C-95.32242676 117.74781738 -95.64485352 118.49563477 -95.97705078 119.26611328 C-102.26856642 134.01220946 -107.12427206 149.38258248 -112.20098877 164.57833862 C-130.41514108 219.06288619 -130.41514108 219.06288619 -149.81640625 230.6875 C-156.24179272 233.33649369 -164.12700102 233.24667349 -170.73046875 231.12109375 C-179.84365205 226.36843533 -185.15701221 218.81672136 -190 210 C-194.55412227 211.96604791 -198.21268004 215.20208667 -202.046875 218.27929688 C-206.87210016 222.07944486 -211.55802621 225.73622558 -218 225 C-219 224 -219 224 -219.3046875 221.65234375 C-219 219 -219 219 -217.3828125 217.19140625 C-216.63773438 216.65386719 -215.89265625 216.11632812 -215.125 215.5625 C-213.90103516 214.67498047 -213.90103516 214.67498047 -212.65234375 213.76953125 C-209.25864652 211.5054004 -205.80074964 209.38819142 -202.26171875 207.359375 C-199.95718192 206.03351755 -199.95718192 206.03351755 -197.83203125 204.328125 C-196 203 -196 203 -194 203 C-194.28875 201.84628906 -194.5775 200.69257813 -194.875 199.50390625 C-200.22456475 176.62177422 -201.25538122 150.28577948 -189.43359375 129.20703125 C-185.15750597 122.64904047 -179.59398768 116.53132923 -172 114 C-166.81393169 113.17731045 -162.84834537 113.65042283 -158.3125 116.375 C-151.60848102 121.35613299 -147.63028779 128.5511836 -146.24609375 136.7421875 C-144.52255401 152.55498067 -148.58259897 169.09428664 -158.38085938 181.7890625 C-160.6427484 184.46303657 -163.01916233 186.95935395 -165.484375 189.44921875 C-167.88596419 191.88437052 -170.10333107 194.15039304 -172 197 C-171.81146045 201.74042299 -168.00293487 205.58310915 -165 209 C-160.80889014 212.47772946 -157.4836498 214 -152 214 C-143.48809033 211.70503844 -137.72611059 204.25336513 -133.4375 196.9375 C-127.55622649 185.34393233 -122.92972379 173.42925019 -118.97311401 161.06555176 C-110.83788315 135.71810191 -101.57385617 111.0018548 -90 87 C-89.62214355 86.21254395 -89.24428711 85.42508789 -88.85498047 84.61376953 C-80.6303892 67.5571523 -71.01270609 50.71556496 -59 36 C-58.34 36 -57.68 36 -57 36 C-56.73155273 35.40920654 -56.46310547 34.81841309 -56.18652344 34.2097168 C-47.04160107 17.17871015 -23.80161202 4.72949167 -6.15625 -0.65234375 C-3.78667452 -1.03439487 -2.26175377 -0.74535067 0 0 Z M-180 134 C-185.75308621 140.90370345 -186.39232733 149.37147666 -186.375 158.0625 C-186.37411377 158.8767041 -186.37322754 159.6909082 -186.37231445 160.52978516 C-186.18395235 170.37242192 -184.52331531 180.67546173 -179 189 C-169.14061241 184.0703062 -164.64513974 173.86476742 -160.8515625 164.01953125 C-158.62921258 156.13936388 -159.19597321 147.67899424 -162.58984375 140.234375 C-165.00708977 136.40427881 -168.15186624 133.38631703 -172 131 C-175.72055546 131 -177.01106771 131.81297638 -180 134 Z " fill="#080708" transform="translate(231,16)"/>
<path d="M0 0 C7.42508425 4.46007599 11.85325332 11.16203017 13.99609375 19.51171875 C16.6948425 35.48163403 12.48379139 51.61299476 3.62109375 65.01171875 C1.01326287 68.39046428 -1.86182115 71.4294628 -4.86328125 74.4609375 C-7.42317101 76.94958171 -7.42317101 76.94958171 -9.48828125 79.7734375 C-12.06241788 82.82091743 -14.57379189 83.06044016 -18.37890625 84.01171875 C-19.74255908 84.96996128 -21.08684794 85.9589305 -22.37890625 87.01171875 C-23.03890625 87.01171875 -23.69890625 87.01171875 -24.37890625 87.01171875 C-24.37890625 87.67171875 -24.37890625 88.33171875 -24.37890625 89.01171875 C-25.33796875 89.41390625 -25.33796875 89.41390625 -26.31640625 89.82421875 C-28.71022311 90.89839627 -28.71022311 90.89839627 -29.37890625 94.01171875 C-31.5082211 95.90119319 -33.62662916 97.65627882 -35.87890625 99.38671875 C-36.82914673 100.12208862 -36.82914673 100.12208862 -37.79858398 100.87231445 C-50.47603388 110.53554549 -50.47603388 110.53554549 -57.37890625 110.01171875 C-58.37890625 109.01171875 -58.37890625 109.01171875 -58.68359375 106.6640625 C-58.37890625 104.01171875 -58.37890625 104.01171875 -56.76171875 102.203125 C-56.01664063 101.66558594 -55.2715625 101.12804687 -54.50390625 100.57421875 C-53.68792969 99.98253906 -52.87195313 99.39085937 -52.03125 98.78125 C-48.63755277 96.51711915 -45.17965589 94.39991017 -41.640625 92.37109375 C-39.33608817 91.0452363 -39.33608817 91.0452363 -37.2109375 89.33984375 C-35.37890625 88.01171875 -35.37890625 88.01171875 -33.37890625 88.01171875 C-33.66765625 86.85800781 -33.95640625 85.70429688 -34.25390625 84.515625 C-39.603471 61.63349297 -40.63428747 35.29749823 -28.8125 14.21875 C-22.5056562 4.5463051 -12.2560255 -5.09158367 0 0 Z M-19.37890625 19.01171875 C-25.13199246 25.9154222 -25.77123358 34.38319541 -25.75390625 43.07421875 C-25.75302002 43.88842285 -25.75213379 44.70262695 -25.7512207 45.54150391 C-25.5628586 55.38414067 -23.90222156 65.68718048 -18.37890625 74.01171875 C-8.51951866 69.08202495 -4.02404599 58.87648617 -0.23046875 49.03125 C1.99188117 41.15108263 1.42512054 32.69071299 -1.96875 25.24609375 C-4.38599602 21.41599756 -7.53077249 18.39803578 -11.37890625 16.01171875 C-15.09946171 16.01171875 -16.38997396 16.82469513 -19.37890625 19.01171875 Z " fill="#7FBCD5" transform="translate(70.37890625,130.98828125)"/>
<path d="M0 0 C3.125 0.375 3.125 0.375 6 1 C6 2.32 6 3.64 6 5 C6.65226563 4.6390625 7.30453125 4.278125 7.9765625 3.90625 C8.85054687 3.4421875 9.72453125 2.978125 10.625 2.5 C11.48351562 2.0359375 12.34203125 1.571875 13.2265625 1.09375 C16.47253271 -0.18635093 18.53723783 -0.43284527 22 0 C24.7734375 1.53125 24.7734375 1.53125 27.375 3.5 C28.24898437 4.1496875 29.12296875 4.799375 30.0234375 5.46875 C30.67570312 5.9740625 31.32796875 6.479375 32 7 C32 6.34 32 5.68 32 5 C36.56375899 1.13835777 40.9729051 -0.43282549 47 0 C52.45504812 2.47021047 54.55734211 5.75280897 57 11 C57.90264724 15.24974881 58.12847857 19.30298034 58.1328125 23.640625 C58.13474609 25.49300781 58.13474609 25.49300781 58.13671875 27.3828125 C58.13285156 28.65898437 58.12898438 29.93515625 58.125 31.25 C58.13080078 33.18746094 58.13080078 33.18746094 58.13671875 35.1640625 C58.13542969 36.39382812 58.13414062 37.62359375 58.1328125 38.890625 C58.13168457 40.01500977 58.13055664 41.13939453 58.12939453 42.29785156 C58 45 58 45 57 47 C54.36 47 51.72 47 49 47 C47.50711675 44.0142335 47.81463686 41.23766224 47.75390625 37.91015625 C47.72097198 36.47199903 47.68776027 35.03384813 47.65429688 33.59570312 C47.60685537 31.32662248 47.56241476 29.05756828 47.52319336 26.78833008 C47.48348295 24.59950179 47.43194187 22.4111965 47.37890625 20.22265625 C47.3538501 18.91047119 47.32879395 17.59828613 47.30297852 16.24633789 C47.24558703 12.85381741 47.24558703 12.85381741 45 10 C41.33354968 9.42966328 39.53671853 9.67695304 36.34277344 11.59936523 C33.25616781 14.7622032 33.36167481 16.47952855 33.328125 20.84765625 C33.30900055 21.82731606 33.30900055 21.82731606 33.28948975 22.82676697 C33.25326774 24.90578878 33.2504816 26.98319092 33.25 29.0625 C33.22835223 31.14477494 33.19984898 33.22680749 33.16766357 35.3089447 C33.14185165 37.19550245 33.13347893 39.08227474 33.12597656 40.96899414 C33 44 33 44 32 47 C29.36 47 26.72 47 24 47 C22.50711675 44.0142335 22.81463686 41.23766224 22.75390625 37.91015625 C22.72097198 36.47199903 22.68776027 35.03384813 22.65429688 33.59570312 C22.60685537 31.32662248 22.56241476 29.05756828 22.52319336 26.78833008 C22.48348295 24.59950179 22.43194187 22.4111965 22.37890625 20.22265625 C22.3538501 18.91047119 22.32879395 17.59828613 22.30297852 16.24633789 C22.24558703 12.85381741 22.24558703 12.85381741 20 10 C18.25007285 8.89453631 18.25007285 8.89453631 16 9 C12.38765096 11.02291546 10.3075208 12.53871879 8 16 C7.62967783 19.29770342 7.62967783 19.29770342 7.5859375 23.07421875 C7.56657135 23.7580513 7.5472052 24.44188385 7.5272522 25.1464386 C7.46756003 27.32666625 7.42111369 29.50694702 7.375 31.6875 C7.33681057 33.1673405 7.29775826 34.647159 7.2578125 36.12695312 C7.16186798 39.7511005 7.07779849 43.37541257 7 47 C0.84765625 47.09765625 0.84765625 47.09765625 -1 47 C-2.54156555 45.45843445 -2.13468494 44.02554236 -2.14526367 41.87915039 C-2.15164352 41.00476822 -2.15802338 40.13038605 -2.16459656 39.22950745 C-2.16570938 38.27849655 -2.1668222 37.32748566 -2.16796875 36.34765625 C-2.17129715 35.37718857 -2.17462555 34.40672089 -2.17805481 33.40684509 C-2.1831283 31.3497668 -2.18546301 29.29268025 -2.18530273 27.2355957 C-2.18748826 24.07945256 -2.20563691 20.92365929 -2.22460938 17.76757812 C-2.22754333 15.7734387 -2.22952811 13.77929761 -2.23046875 11.78515625 C-2.23765427 10.83616959 -2.24483978 9.88718292 -2.25224304 8.90943909 C-2.24916641 8.03190475 -2.24608978 7.15437042 -2.24291992 6.25024414 C-2.24434494 5.4760463 -2.24576996 4.70184845 -2.24723816 3.90419006 C-2 2 -2 2 0 0 Z " fill="#0A0A0C" transform="translate(202,135)"/>
<path d="M0 0 C1.04414063 0.00580078 2.08828125 0.01160156 3.1640625 0.01757812 C10.82918964 0.14168964 10.82918964 0.14168964 13.125 2.4375 C12.75 5.5625 12.75 5.5625 12.125 8.4375 C10.475 8.7675 8.825 9.0975 7.125 9.4375 C7.62 10.4275 7.62 10.4275 8.125 11.4375 C8.63002343 16.96792052 8.86307257 21.84780524 6.5 26.9375 C3.0642109 30.55412011 0.54351015 33.16030686 -4.6015625 33.75 C-12.16671995 33.9096867 -12.16671995 33.9096867 -15.875 31.4375 C-15.545 33.4175 -15.215 35.3975 -14.875 37.4375 C-13.6684375 37.45167969 -12.461875 37.46585938 -11.21875 37.48046875 C4.75273358 37.8787144 4.75273358 37.8787144 11.125 43.4375 C12.88879404 46.96508807 12.77882198 50.59629585 12.125 54.4375 C9.79411399 58.79126208 6.07812117 62.32266284 1.37109375 64 C-6.21907541 65.47843295 -14.62789911 65.79971042 -21.3828125 61.625 C-23.80751209 59.69539614 -24.88425373 58.40973882 -25.875 55.4375 C-25.90808354 50.74790804 -25.50132226 47.37698339 -22.875 43.4375 C-23.15117533 41.49675139 -23.15117533 41.49675139 -23.875 39.4375 C-24.81817002 36.17927629 -24.98732058 34.76744171 -23.875 31.5 C-22.69666047 27.89133518 -23.16370911 26.13621264 -23.875 22.4375 C-24.19300319 17.10020325 -24.45793102 12.28049565 -21.875 7.4375 C-21.215 7.4375 -20.555 7.4375 -19.875 7.4375 C-19.875 6.7775 -19.875 6.1175 -19.875 5.4375 C-14.03189162 -0.14760378 -7.68094493 -0.24730315 0 0 Z M-13.9375 11.5 C-15.34760486 15.91832856 -15.65758794 19.52994189 -13.875 23.875 C-11.15866008 25.99714057 -9.12326586 25.94829267 -5.74609375 25.75 C-3.78896701 25.52885545 -3.78896701 25.52885545 -1.9375 24.375 C-0.27757394 21.348076 0.00837317 18.87799151 0.125 15.4375 C-1.18219263 12.06871229 -1.18219263 12.06871229 -2.875 9.4375 C-8.96328406 8.65072138 -8.96328406 8.65072138 -13.9375 11.5 Z M-16.875 48.4375 C-17.20840471 51.39554573 -17.20840471 51.39554573 -16.875 54.4375 C-13.34263908 56.79240728 -11.62779632 56.76493705 -7.4375 56.8125 C-6.30441406 56.84085938 -5.17132813 56.86921875 -4.00390625 56.8984375 C-0.79082195 56.68319226 -0.79082195 56.68319226 1.55078125 54.5859375 C3.43720257 52.50835105 3.43720257 52.50835105 2.875 49.6875 C2.6275 48.945 2.38 48.2025 2.125 47.4375 C-3.65486638 45.23564614 -11.86050094 43.42300094 -16.875 48.4375 Z " fill="#070608" transform="translate(334.875,134.5625)"/>
<path d="M0 0 C3.0625 0.1875 3.0625 0.1875 5.0625 2.1875 C5.30973816 4.25650024 5.30973816 4.25650024 5.30541992 6.84228516 C5.31003487 8.29618149 5.31003487 8.29618149 5.31474304 9.77944946 C5.30755753 10.83449677 5.30037201 11.88954407 5.29296875 12.9765625 C5.29251053 14.06778412 5.29205231 15.15900574 5.2915802 16.28329468 C5.28855162 18.60521524 5.28064739 20.92713367 5.26831055 23.24902344 C5.2503241 26.74942503 5.24779911 30.24955752 5.24804688 33.75 C5.22867996 45.5993776 5.03665145 57.37437232 4.0625 69.1875 C1.7525 69.1875 -0.5575 69.1875 -2.9375 69.1875 C-2.9375 67.5375 -2.9375 65.8875 -2.9375 64.1875 C-3.38738281 64.5484375 -3.83726562 64.909375 -4.30078125 65.28125 C-9.23355137 68.83996191 -13.22218143 70.03411741 -19.31640625 69.73828125 C-23.6750671 68.82237785 -26.20503495 66.61479188 -28.9375 63.1875 C-33.60808511 55.55887765 -34.1763564 46.26336192 -32.40625 37.58203125 C-30.58821773 31.68330699 -27.95050981 27.91962472 -23.25 23.875 C-19.12344925 21.7727949 -15.4722779 20.97066793 -10.9375 22.1875 C-8.78131559 23.72456262 -6.90635471 25.40251822 -4.9375 27.1875 C-4.91244385 26.40511963 -4.8873877 25.62273926 -4.86157227 24.81665039 C-4.74600212 21.29425051 -4.62310051 17.7721444 -4.5 14.25 C-4.46068359 13.01830078 -4.42136719 11.78660156 -4.38085938 10.51757812 C-4.33896484 9.34775391 -4.29707031 8.17792969 -4.25390625 6.97265625 C-4.21724854 5.88863525 -4.18059082 4.80461426 -4.14282227 3.68774414 C-3.84660085 0.08060561 -3.6704687 0.23428524 0 0 Z M-19.9375 32.1875 C-24.31152609 39.63954445 -24.83621088 46.619053 -23.1875 55 C-21.8287588 58.46479005 -21.09540216 60.19303548 -17.9375 62.1875 C-13.13438394 62.41990884 -10.05548874 61.88290456 -6.4375 58.625 C-3.51731761 54.79276064 -3.33455116 50.73025247 -3.25 46.0625 C-3.23066406 45.36954834 -3.21132813 44.67659668 -3.19140625 43.96264648 C-3.28117639 40.06933429 -3.814267 38.33687948 -6.3125 35.30859375 C-12.70186871 29.97059542 -12.70186871 29.97059542 -19.9375 32.1875 Z " fill="#0B0A0C" transform="translate(896.9375,112.8125)"/>
<path d="M0 0 C2.96508789 -0.35644531 2.96508789 -0.35644531 6.72265625 -0.328125 C7.38333603 -0.32625183 8.04401581 -0.32437866 8.72471619 -0.32244873 C10.12097217 -0.3157261 11.51720925 -0.30180717 12.91333008 -0.28125 C15.05763114 -0.2500708 17.20119779 -0.24027799 19.34570312 -0.234375 C29.83662324 -0.16337676 29.83662324 -0.16337676 31 1 C31.04092937 3.33297433 31.04241723 5.66705225 31 8 C28.49502996 9.25248502 26.79146726 9.11374406 23.9921875 9.09765625 C23.00605469 9.09443359 22.01992187 9.09121094 21.00390625 9.08789062 C19.97136719 9.07951172 18.93882812 9.07113281 17.875 9.0625 C16.31458984 9.05573242 16.31458984 9.05573242 14.72265625 9.04882812 C12.14841313 9.03701967 9.57419947 9.01908385 7 9 C7 14.94 7 20.88 7 27 C7.99 26.67 8.98 26.34 10 26 C12.69998707 25.87817477 15.36278771 25.81488701 18.0625 25.8125 C18.79533203 25.80025391 19.52816406 25.78800781 20.28320312 25.77539062 C22.19026507 25.77013701 24.09684886 25.87781728 26 26 C28 28 28 28 28.1875 31.0625 C28 34 28 34 27 35 C25.5112814 35.08669432 24.018555 35.10703494 22.52734375 35.09765625 C21.71773193 35.09515869 20.90812012 35.09266113 20.07397461 35.09008789 C19.03893799 35.08098389 18.00390137 35.07187988 16.9375 35.0625 C13.658125 35.041875 10.37875 35.02125 7 35 C7 41.6 7 48.2 7 55 C8.55332031 54.97679687 10.10664063 54.95359375 11.70703125 54.9296875 C13.7421827 54.91093034 15.77733934 54.89273009 17.8125 54.875 C18.83666016 54.85824219 19.86082031 54.84148437 20.91601562 54.82421875 C21.89892578 54.81777344 22.88183594 54.81132812 23.89453125 54.8046875 C24.80050049 54.79421387 25.70646973 54.78374023 26.63989258 54.77294922 C29 55 29 55 32 57 C31.67 58.98 31.34 60.96 31 63 C20.18688437 63.79688494 9.81137083 64.12980563 -1 63 C-2.03495278 59.89514167 -2.13281443 57.73042265 -2.14526367 54.47460938 C-2.15164352 53.34333618 -2.15802338 52.21206299 -2.16459656 51.04650879 C-2.16570938 49.82459839 -2.1668222 48.60268799 -2.16796875 47.34375 C-2.17129715 46.0899353 -2.17462555 44.83612061 -2.17805481 43.54431152 C-2.18312115 40.89132134 -2.18589534 38.2384336 -2.18530273 35.58544922 C-2.185201 32.18574325 -2.1988678 28.7862456 -2.21607494 25.38658905 C-2.22986243 22.14315042 -2.22928339 18.89971398 -2.23046875 15.65625 C-2.23765427 14.4343396 -2.24483978 13.2124292 -2.25224304 11.95349121 C-2.24916641 10.82221802 -2.24608978 9.69094482 -2.24291992 8.52539062 C-2.24434494 7.5285022 -2.24576996 6.53161377 -2.24723816 5.5045166 C-2 3 -2 3 0 0 Z " fill="#090709" transform="translate(160,119)"/>
<path d="M0 0 C2.56405976 -0.03219042 5.12469052 -0.05362396 7.68896484 -0.03344727 C9.00574219 -0.06341797 9.00574219 -0.06341797 10.34912109 -0.09399414 C17.95961537 -0.08833998 23.0432873 1.97437732 28.93896484 6.71655273 C32.69564871 11.46765292 33.27666595 15.92682574 33.06396484 21.84155273 C32.36770708 27.66770968 30.35482711 31.42303391 26.06396484 35.40405273 C20.03668986 40.02183134 13.43876571 40.06883451 6.06396484 40.40405273 C5.73396484 47.99405273 5.40396484 55.58405273 5.06396484 63.40405273 C2.42396484 63.40405273 -0.21603516 63.40405273 -2.93603516 63.40405273 C-4.67443903 61.66564886 -4.07260217 59.28772592 -4.08129883 56.92211914 C-4.08767868 55.75065338 -4.09405853 54.57918762 -4.10063171 53.3722229 C-4.10174454 52.09624237 -4.10285736 50.82026184 -4.10400391 49.50561523 C-4.10733231 48.20457855 -4.11066071 46.90354187 -4.11408997 45.56307983 C-4.12008786 42.80400768 -4.12192925 40.04496689 -4.12133789 37.28588867 C-4.12123635 33.74936584 -4.13487693 30.21304416 -4.1521101 26.67656898 C-4.16590216 23.30708119 -4.16531892 19.93763092 -4.16650391 16.56811523 C-4.17368942 15.29618317 -4.18087494 14.0242511 -4.1882782 12.71377563 C-4.18520157 11.53600555 -4.18212494 10.35823547 -4.17895508 9.14477539 C-4.1803801 8.10632477 -4.18180511 7.06787415 -4.18327332 5.99795532 C-3.88457784 2.86418763 -3.34341798 0.69777513 0 0 Z M5.06396484 9.40405273 C5.06396484 16.66405273 5.06396484 23.92405273 5.06396484 31.40405273 C12.21848513 32.17101426 12.21848513 32.17101426 18.93896484 30.32592773 C20.43295903 28.84733482 20.43295903 28.84733482 22.06396484 26.40405273 C22.39396484 26.07405273 22.72396484 25.74405273 23.06396484 25.40405273 C23.68264567 20.13642741 23.97233719 15.82338452 21.06396484 11.27905273 C15.57932234 7.85115117 11.30808109 8.15522949 5.06396484 9.40405273 Z " fill="#0E0C0C" transform="translate(663.93603515625,118.595947265625)"/>
<path d="M0 0 C3.40914714 8.00398331 6.02824464 16.18353976 8.5625 24.5 C8.94857422 25.75425781 9.33464844 27.00851563 9.73242188 28.30078125 C11.85027914 35.1919352 13.94006218 42.0913164 16 49 C17.37670865 44.58386444 18.75130396 40.16707341 20.125 35.75 C20.32875244 35.0952771 20.53250488 34.4405542 20.74243164 33.76599121 C23.64305742 24.44108004 26.50138663 15.10504466 29.23486328 5.72949219 C30.89321094 0.10678906 30.89321094 0.10678906 32 -1 C37.52941176 -1.23529412 37.52941176 -1.23529412 40 0 C39.53145889 6.04143451 38.47141936 11.43824715 36.48828125 17.15625 C36.2375737 17.90225464 35.98686615 18.64825928 35.7285614 19.41687012 C34.93167708 21.78088065 34.12225707 24.14037227 33.3125 26.5 C32.78890471 28.04920603 32.26611304 29.59868392 31.74414062 31.1484375 C28.25818824 41.46584698 24.64716124 51.73863388 21 62 C17.7 62 14.4 62 11 62 C8.19874784 55.82706286 6.09019291 49.4869995 3.98828125 43.046875 C3.61519333 41.90970032 3.24210541 40.77252563 2.85771179 39.60089111 C2.07368559 37.20776536 1.29131257 34.81409744 0.51049805 32.41992188 C-0.68853639 28.74682514 -1.89572667 25.07647604 -3.10351562 21.40625 C-3.86507778 19.07828669 -4.62616224 16.75016705 -5.38671875 14.421875 C-5.74916183 13.32188171 -6.11160492 12.22188843 -6.48503113 11.08856201 C-6.98103569 9.56117401 -6.98103569 9.56117401 -7.48706055 8.00292969 C-7.78001511 7.10693054 -8.07296967 6.2109314 -8.37480164 5.28778076 C-9 3 -9 3 -9 0 C-5.93109813 -1.53445094 -3.29905734 -0.54984289 0 0 Z " fill="#070607" transform="translate(424,120)"/>
<path d="M0 0 C3.3125 1.6875 3.3125 1.6875 6 4 C6.9075 4.763125 7.815 5.52625 8.75 6.3125 C13.49805179 11.98378408 13.58535192 18.89409997 13 26 C12 27 12 27 9.40795898 27.11352539 C8.28204346 27.10828857 7.15612793 27.10305176 5.99609375 27.09765625 C4.78115234 27.09443359 3.56621094 27.09121094 2.31445312 27.08789062 C1.03505859 27.07951172 -0.24433594 27.07113281 -1.5625 27.0625 C-2.84576172 27.05798828 -4.12902344 27.05347656 -5.45117188 27.04882812 C-8.63416022 27.03699545 -11.81705762 27.02051068 -15 27 C-14.51017044 31.95707917 -14.51017044 31.95707917 -12.4375 36.375 C-9.06682649 38.62211568 -5.97628392 39.2096459 -2 39 C0.39191386 38.37943778 2.62920165 37.6109497 4.921875 36.69140625 C7 36 7 36 11 36 C11.3125 38.75 11.3125 38.75 11 42 C6.43189824 46.56810176 2.53212885 47.18443085 -3.75 47.3125 C-10.74101731 47.24770169 -14.33964028 46.5029249 -19.453125 41.609375 C-25.02411951 35.52610513 -25.39343995 29.0716384 -25.25 21.19140625 C-24.69630206 14.12310595 -22.05057233 9.05057233 -17 4 C-11.52023864 -0.08295945 -6.79508216 -1.11376347 0 0 Z M-13.8125 12.375 C-15.49168049 14.33738339 -15.49168049 14.33738339 -15 19 C-8.73 19 -2.46 19 4 19 C3.16862038 12.72973703 3.16862038 12.72973703 -1 9 C-6.78177994 7.15475108 -9.24690277 8.91144348 -13.8125 12.375 Z " fill="#080608" transform="translate(378,135)"/>
<path d="M0 0 C4.89089933 2.7624524 6.97259627 5.74817904 8.671875 11.12890625 C8.92593534 13.90860483 9.04851444 16.44686911 9 19.21484375 C8.99812683 19.95723297 8.99625366 20.69962219 8.99432373 21.46450806 C8.98764749 23.01919101 8.97382228 24.57385845 8.953125 26.12841797 C8.92168879 28.51806082 8.91212062 30.90704489 8.90625 33.296875 C8.89709005 34.81120604 8.88671752 36.32553034 8.875 37.83984375 C8.86862518 38.91472549 8.86862518 38.91472549 8.86212158 40.01132202 C8.78911492 45.01166633 8.78911492 45.01166633 7.671875 46.12890625 C5.67229136 46.16971408 3.67142246 46.17144981 1.671875 46.12890625 C1.341875 45.13890625 1.011875 44.14890625 0.671875 43.12890625 C-0.09125 43.62390625 -0.854375 44.11890625 -1.640625 44.62890625 C-6.63248392 46.65949293 -11.00466928 46.84186907 -16.328125 46.12890625 C-20.7612485 43.99150742 -23.45343146 41.71149045 -25.328125 37.12890625 C-25.90888283 33.1603944 -25.73725988 30.0763765 -24.140625 26.37890625 C-21.17883836 22.7022056 -17.72871368 19.86938088 -13.328125 18.12890625 C-10.09375 17.93359375 -10.09375 17.93359375 -6.578125 18.00390625 C-5.40765625 18.02195313 -4.2371875 18.04 -3.03125 18.05859375 C-2.13921875 18.08179688 -1.2471875 18.105 -0.328125 18.12890625 C-1.318125 15.15890625 -2.308125 12.18890625 -3.328125 9.12890625 C-10.40821542 8.8297475 -15.76140599 9.46415071 -22.328125 12.12890625 C-23.328125 11.12890625 -23.328125 11.12890625 -23.890625 8.37890625 C-23.328125 5.12890625 -23.328125 5.12890625 -21.6484375 3.65625 C-14.92709124 -0.56613419 -7.78532189 -2.9129644 0 0 Z M-14.515625 27.75390625 C-16.55300857 30.05170846 -16.55300857 30.05170846 -16.890625 33.19140625 C-16.5630263 36.14832103 -16.5630263 36.14832103 -14.765625 38.06640625 C-11.22103664 39.61148323 -9.03106877 39.10336514 -5.328125 38.12890625 C-2.27898564 36.73981725 -2.27898564 36.73981725 -0.328125 34.12890625 C0.08966046 31.32760118 -0.09007143 28.9855491 -0.328125 26.12890625 C-7.65927876 25.58782213 -7.65927876 25.58782213 -14.515625 27.75390625 Z " fill="#080809" transform="translate(293.328125,135.87109375)"/>
<path d="M0 0 C6.23046751 3.45625047 9.66652347 6.83308311 11.83984375 13.72265625 C13.52792717 22.36440442 12.97966503 31.13372838 8.1640625 38.61328125 C4.18649983 43.87392865 -0.24832332 45.85192276 -6.609375 46.77734375 C-11.57040782 47.11999767 -15.48842393 46.58111975 -19.734375 43.90234375 C-24.79105437 39.34009525 -27.48312983 34.83840651 -28.0703125 27.9765625 C-28.39401198 12.37707758 -28.39401198 12.37707758 -23.734375 6.90234375 C-16.97368446 -0.04657947 -9.6258754 -3.86410141 0 0 Z M-17.734375 12.90234375 C-19.91416413 19.24608905 -19.63815958 27.28136846 -17.484375 33.52734375 C-15.12697225 36.8451602 -15.12697225 36.8451602 -11.734375 38.90234375 C-7.28143769 39.09952179 -3.83978348 38.73140011 -0.234375 36.02734375 C2.65760999 31.93036501 2.48086618 27.85012955 2.515625 23.02734375 C2.53625 22.31964844 2.556875 21.61195313 2.578125 20.8828125 C2.61190506 16.34783974 2.09213576 13.48171018 -0.734375 9.90234375 C-7.01170112 5.71745967 -13.27077653 6.76489586 -17.734375 12.90234375 Z " fill="#090809" transform="translate(571.734375,136.09765625)"/>
<path d="M0 0 C5.63999971 -0.24521738 11.11201699 0.11356667 15.99609375 3.15234375 C20.92024271 8.73935892 23.68318653 15.72369455 23.99609375 23.15234375 C23.68884074 25.7420477 23.19110057 28.18462762 22.5625 30.71484375 C22.01265509 33.08107289 21.78491416 35.29534235 21.62109375 37.71484375 C21.11380035 42.63908832 19.61851846 46.94426689 16.99609375 51.15234375 C14.0116667 53.55444357 12.81631137 54.15234375 8.99609375 54.15234375 C8.89425781 54.72855469 8.79242188 55.30476563 8.6875 55.8984375 C7.65088678 59.27767947 5.48258906 61.54184009 3.2734375 64.25 C1.71736826 66.1855485 1.71736826 66.1855485 1.99609375 69.15234375 C0.62109375 70.83984375 0.62109375 70.83984375 -1.00390625 72.15234375 C-1.66390625 72.15234375 -2.32390625 72.15234375 -3.00390625 72.15234375 C-3.00390625 72.81234375 -3.00390625 73.47234375 -3.00390625 74.15234375 C-5.65129541 75.61297225 -6.89838959 76.15234375 -10.00390625 76.15234375 C-10.33390625 75.16234375 -10.66390625 74.17234375 -11.00390625 73.15234375 C-10.49601562 72.82363281 -9.988125 72.49492187 -9.46484375 72.15625 C0.07629421 65.56321646 5.79887129 55.17866225 8.99609375 44.15234375 C9.99390908 35.00957075 9.17619639 26.68515866 3.5234375 19.203125 C0.9208961 16.56366812 -0.96240637 15.29222403 -4.6796875 14.79296875 C-7.1535633 14.77897228 -9.54572145 14.88525727 -12.00390625 15.15234375 C-13.29226394 11.28727067 -12.56393103 9.86668845 -11.00390625 6.15234375 C-8.02644381 1.53214342 -8.02644381 1.53214342 -4.81640625 0.33984375 C-3.21051062 0.23278404 -1.60482941 0.12200457 0 0 Z " fill="#7BBCD9" transform="translate(61.00390625,132.84765625)"/>
<path d="M0 0 C5.21969486 2.45777758 9.70537225 5.5502591 12 11 C13.01181693 14.27059136 13.13412065 17.27181577 13.125 20.6875 C13.12886719 22.14736328 13.12886719 22.14736328 13.1328125 23.63671875 C13 26 13 26 12 27 C10.00035018 27.08758003 7.9976389 27.10696576 5.99609375 27.09765625 C4.78115234 27.09443359 3.56621094 27.09121094 2.31445312 27.08789062 C1.03505859 27.07951172 -0.24433594 27.07113281 -1.5625 27.0625 C-2.84576172 27.05798828 -4.12902344 27.05347656 -5.45117188 27.04882812 C-8.63416022 27.03699545 -11.81705762 27.02051068 -15 27 C-14.54243268 28.45891846 -14.07747848 29.91552167 -13.609375 31.37109375 C-13.35124023 32.18247803 -13.09310547 32.9938623 -12.82714844 33.82983398 C-12.08987057 36.12610457 -12.08987057 36.12610457 -10.25 38.0625 C-4.5490529 40.43789463 0.45269966 38.730271 5.88671875 36.55859375 C8.31184828 35.9175706 9.65385787 36.20029918 12 37 C12 39.75 12 39.75 11 43 C4.34448439 47.95901163 -2.93658581 48.0443862 -11 47 C-16.22637141 45.37746036 -19.19070174 42.30221985 -22 37.6875 C-25.27709436 30.2779341 -25.33442268 21.212098 -23.3359375 13.40625 C-19.27225705 4.21879854 -9.99684996 -1.83355302 0 0 Z M-13 12 C-15.36980013 14.95377498 -15.36980013 14.95377498 -15 19 C-8.73 19 -2.46 19 4 19 C5.37200333 16.03845745 5.37200333 16.03845745 3.8125 13.5 C1.43243459 10.21715116 -0.31266164 8.31082549 -4.375 7.5625 C-7.98858806 8.16476468 -10.13201301 9.76934346 -13 12 Z " fill="#09090A" transform="translate(757,135)"/>
<path d="M0 0 C1.2065625 0.0309375 1.2065625 0.0309375 2.4375 0.0625 C3.015 1.114375 3.5925 2.16625 4.1875 3.25 C8.05266541 9.95322393 12.09586087 14.75181649 19.75 17.0625 C24.67509367 17.0625 28.14094419 15.33256237 32.4375 13.0625 C32.1075 14.3825 31.7775 15.7025 31.4375 17.0625 C33.56114481 17.28859337 33.56114481 17.28859337 35.0625 15.5625 C35.743125 14.82 35.743125 14.82 36.4375 14.0625 C37.4375 20.6875 37.4375 20.6875 37.4375 24.0625 C35.6796875 26 35.6796875 26 33.3125 28.0625 C32.16394531 29.0834375 32.16394531 29.0834375 30.9921875 30.125 C23.50511193 35.80327138 16.59410935 36.07775236 7.4375 35.0625 C-2.27611149 31.93580102 -8.38646589 23.8079014 -13.59375 15.4921875 C-14.75748228 12.57347187 -14.44930882 11.02908665 -13.5625 8.0625 C-12.2425 7.7325 -10.9225 7.4025 -9.5625 7.0625 C-9.5625 6.4025 -9.5625 5.7425 -9.5625 5.0625 C-7.59527992 3.68126037 -5.59381672 2.34761874 -3.5625 1.0625 C-2.5625 0.0625 -2.5625 0.0625 0 0 Z " fill="#0F1011" transform="translate(55.5625,212.9375)"/>
<path d="M0 0 C2.4375 0.9375 2.4375 0.9375 3.58984375 2.99609375 C3.86957031 3.63675781 4.14929688 4.27742187 4.4375 4.9375 C5.01757812 4.5765625 5.59765625 4.215625 6.1953125 3.84375 C14.65500191 -1.18180806 14.65500191 -1.18180806 19.4375 -0.0625 C24.09502306 2.31087382 27.18339506 4.74802729 29.16015625 9.66015625 C31.05429943 15.90961822 30.81461438 22.34279585 30.71875 28.80615234 C30.68715859 30.96078533 30.67772658 33.11468793 30.671875 35.26953125 C30.60160788 45.77339212 30.60160788 45.77339212 29.4375 46.9375 C26.76691149 47.07865161 24.11317762 46.97997107 21.4375 46.9375 C21.42348145 45.53056885 21.42348145 45.53056885 21.40917969 44.09521484 C21.36500562 40.59463676 21.30332333 37.09525697 21.22998047 33.59521484 C21.20186218 32.08426062 21.18060229 30.57316179 21.16650391 29.06201172 C21.14494551 26.88173897 21.09823684 24.70318781 21.046875 22.5234375 C21.02592773 21.2142334 21.00498047 19.9050293 20.98339844 18.55615234 C20.32951135 14.22166468 19.08773511 12.34956227 16.4375 8.9375 C12.68741771 9.19913365 10.75896133 9.68435951 7.77246094 12.03613281 C4.8575053 15.65818768 4.79961616 17.56665823 4.765625 22.171875 C4.75287537 22.85050598 4.74012573 23.52913696 4.72698975 24.22833252 C4.69083265 26.38181944 4.68798172 28.53373692 4.6875 30.6875 C4.66589739 32.85496179 4.63749494 35.02218732 4.60516357 37.18951416 C4.57930113 39.14542688 4.57097108 41.10154785 4.56347656 43.05761719 C4.4375 45.9375 4.4375 45.9375 3.4375 46.9375 C0.76691149 47.07865161 -1.88682238 46.97997107 -4.5625 46.9375 C-5.69326606 44.67596788 -5.70023387 43.41326351 -5.72363281 40.90258789 C-5.73324036 40.07155045 -5.7428479 39.240513 -5.75274658 38.3842926 C-5.75699646 37.48532761 -5.76124634 36.58636261 -5.765625 35.66015625 C-5.77132507 34.73786728 -5.77702515 33.81557831 -5.78289795 32.86534119 C-5.79235248 30.91259918 -5.79888372 28.95984118 -5.80273438 27.00708008 C-5.81244964 24.01550603 -5.84347255 21.02461611 -5.875 18.03320312 C-5.88152899 16.13802492 -5.88677987 14.2428418 -5.890625 12.34765625 C-5.9029718 11.45071548 -5.9153186 10.55377472 -5.92803955 9.62965393 C-5.92503845 8.79546432 -5.92203735 7.96127472 -5.91894531 7.10180664 C-5.92259094 6.3683754 -5.92623657 5.63494415 -5.92999268 4.87928772 C-5.25563126 1.31604195 -3.56501973 -0.0869517 0 0 Z " fill="#060507" transform="translate(597.5625,135.0625)"/>
<path d="M0 0 C3.7385839 2.33084552 4.75123124 3.52245497 5.8359375 7.93359375 C5.8565625 8.98546875 5.8771875 10.03734375 5.8984375 11.12109375 C-0.9765625 10.24609375 -0.9765625 10.24609375 -2.1015625 9.12109375 C-4.77215101 8.97994214 -7.42588488 9.07862268 -10.1015625 9.12109375 C-10.7615625 10.44109375 -11.4215625 11.76109375 -12.1015625 13.12109375 C-9.05416173 16.67639465 -6.28452779 18.66433256 -2.0390625 20.68359375 C4.75165026 23.94758217 4.75165026 23.94758217 6.8984375 27.12109375 C8.08318534 31.30720278 8.04718474 33.63353334 6.7734375 37.80859375 C4.22476539 42.31124782 1.73487189 44.32264401 -2.9765625 46.37109375 C-10.20962953 48.10702984 -14.90714707 46.883068 -21.1015625 43.12109375 C-22.1015625 42.12109375 -22.1015625 42.12109375 -22.1640625 38.55859375 C-22.1434375 37.42421875 -22.1228125 36.28984375 -22.1015625 35.12109375 C-20.4515625 35.12109375 -18.8015625 35.12109375 -17.1015625 35.12109375 C-17.1015625 35.78109375 -17.1015625 36.44109375 -17.1015625 37.12109375 C-11.86684564 37.87721952 -7.32902109 38.32743035 -2.1015625 37.12109375 C-1.76758463 34.2469625 -1.76758463 34.2469625 -2.1015625 31.12109375 C-5.85069893 27.64039191 -10.71638783 25.9010368 -15.32421875 23.81640625 C-18.47828208 21.89114115 -19.59823666 20.46687953 -21.1015625 17.12109375 C-21.87971503 13.3924462 -21.95092997 9.73943588 -20.15234375 6.3125 C-14.95236656 -0.26538912 -8.03338881 -3.35968863 0 0 Z " fill="#080608" transform="translate(510.1015625,135.87890625)"/>
<path d="M0 0 C2.97 0 5.94 0 9 0 C9 18.15 9 36.3 9 55 C9.99 54.505 9.99 54.505 11 54 C13.63760152 53.87536608 16.2372717 53.81483427 18.875 53.8125 C19.59558594 53.80025391 20.31617188 53.78800781 21.05859375 53.77539062 C24.86487912 53.76487602 27.77513112 53.86415752 31 56 C30.67 57.98 30.34 59.96 30 62 C25.8882744 62.02465746 21.77657722 62.04283959 17.66479492 62.05493164 C16.26504772 62.0599708 14.8653058 62.06680216 13.46557617 62.07543945 C11.45754223 62.0875232 9.44947043 62.09269807 7.44140625 62.09765625 C6.23170166 62.10289307 5.02199707 62.10812988 3.77563477 62.11352539 C1 62 1 62 0 61 C-0.1598737 59.29328644 -0.2517044 57.58015115 -0.31640625 55.8671875 C-0.35846191 54.76487793 -0.40051758 53.66256836 -0.44384766 52.52685547 C-0.48300293 51.32174316 -0.5221582 50.11663086 -0.5625 48.875 C-0.6042334 47.64281738 -0.6459668 46.41063477 -0.68896484 45.14111328 C-0.98887796 35.38598004 -1.10761802 25.63447955 -1.125 15.875 C-1.1275882 15.1916156 -1.13017639 14.5082312 -1.13284302 13.80413818 C-1.13865769 11.86683002 -1.13593358 9.92950188 -1.1328125 7.9921875 C-1.13168457 6.88214355 -1.13055664 5.77209961 -1.12939453 4.62841797 C-1 2 -1 2 0 0 Z " fill="#110F10" transform="translate(801,120)"/>
<path d="M0 0 C3.5 0.125 3.5 0.125 4.5 1.125 C4.57226502 2.97787502 4.5838122 4.83333878 4.5625 6.6875 C4.55347656 7.69941406 4.54445313 8.71132812 4.53515625 9.75390625 C4.52355469 10.53636719 4.51195312 11.31882813 4.5 12.125 C5.11488281 12.09019531 5.72976563 12.05539063 6.36328125 12.01953125 C7.57564453 11.97892578 7.57564453 11.97892578 8.8125 11.9375 C9.61300781 11.90269531 10.41351562 11.86789063 11.23828125 11.83203125 C13.5 12.125 13.5 12.125 15.3046875 13.47265625 C16.5 15.125 16.5 15.125 16.3125 17.75 C15.5 20.125 15.5 20.125 13.5 21.125 C11.95976004 21.19450541 10.41665012 21.20952357 8.875 21.1875 C7.64910156 21.17396484 7.64910156 21.17396484 6.3984375 21.16015625 C5.77195312 21.14855469 5.14546875 21.13695312 4.5 21.125 C4.63890602 25.37525618 4.78731994 29.62512842 4.9375 33.875 C4.97681641 35.0815625 5.01613281 36.288125 5.05664062 37.53125 C5.09853516 38.69140625 5.14042969 39.8515625 5.18359375 41.046875 C5.22025146 42.11518555 5.25690918 43.18349609 5.29467773 44.28417969 C5.43440461 47.34986484 5.43440461 47.34986484 6.5 51.125 C9.47 51.125 12.44 51.125 15.5 51.125 C16.5 55.125 16.5 55.125 15.5625 57.375 C15.0365625 58.24125 15.0365625 58.24125 14.5 59.125 C3.61593304 59.90615313 3.61593304 59.90615313 -0.625 56.9375 C-3.88147522 52.05278717 -4.7488982 48.37935235 -4.6953125 42.51171875 C-4.68886719 41.26455078 -4.68242188 40.01738281 -4.67578125 38.73242188 C-4.65902344 37.43884766 -4.64226563 36.14527344 -4.625 34.8125 C-4.61597656 33.49958984 -4.60695313 32.18667969 -4.59765625 30.83398438 C-4.57411797 27.59747087 -4.5412352 24.36132851 -4.5 21.125 C-5.28375 21.16625 -6.0675 21.2075 -6.875 21.25 C-9.5 21.125 -9.5 21.125 -11.5 19.125 C-11.75 16.625 -11.75 16.625 -11.5 14.125 C-9.5 12.125 -9.5 12.125 -6.875 12 C-6.09125 12.04125 -5.3075 12.0825 -4.5 12.125 C-4.51160156 11.34253906 -4.52320313 10.56007812 -4.53515625 9.75390625 C-4.54417969 8.74199219 -4.55320312 7.73007813 -4.5625 6.6875 C-4.57410156 5.67816406 -4.58570313 4.66882813 -4.59765625 3.62890625 C-4.44506773 -0.28346347 -4.05187323 0.14470976 0 0 Z " fill="#070506" transform="translate(711.5,122.875)"/>
<path d="M0 0 C3.5 0.125 3.5 0.125 4.5 1.125 C4.57244053 3.14464199 4.58377188 5.16667124 4.5625 7.1875 C4.55347656 8.29222656 4.54445313 9.39695313 4.53515625 10.53515625 C4.52355469 11.38980469 4.51195312 12.24445313 4.5 13.125 C5.12648438 13.04121094 5.75296875 12.95742187 6.3984375 12.87109375 C7.21570313 12.76925781 8.03296875 12.66742188 8.875 12.5625 C9.68710937 12.45808594 10.49921875 12.35367188 11.3359375 12.24609375 C13.5 12.125 13.5 12.125 15.5 13.125 C15.5 15.435 15.5 17.745 15.5 20.125 C13.5 21.125 13.5 21.125 4.5 21.125 C4.995 35.48 4.995 35.48 5.5 50.125 C9.08779175 51.02194794 11.84618837 51.20804117 15.5 51.125 C14.625 58 14.625 58 13.5 59.125 C8.42220364 59.64470735 3.96951286 59.93473158 -0.5625 57.4375 C-4.30555339 52.96998466 -4.74578466 49.02155842 -4.6953125 43.29296875 C-4.68564453 41.35454102 -4.68564453 41.35454102 -4.67578125 39.37695312 C-4.65907327 38.0221327 -4.64214342 36.66731499 -4.625 35.3125 C-4.61496003 33.93815749 -4.60583596 32.56380797 -4.59765625 31.18945312 C-4.57411242 27.83445683 -4.54122567 24.47981801 -4.5 21.125 C-6.81 20.795 -9.12 20.465 -11.5 20.125 C-11.5 17.815 -11.5 15.505 -11.5 13.125 C-8.035 12.63 -8.035 12.63 -4.5 12.125 C-4.51160156 11.34253906 -4.52320313 10.56007812 -4.53515625 9.75390625 C-4.54417969 8.74199219 -4.55320312 7.73007813 -4.5625 6.6875 C-4.57410156 5.67816406 -4.58570313 4.66882813 -4.59765625 3.62890625 C-4.44506773 -0.28346347 -4.05187323 0.14470976 0 0 Z " fill="#050407" transform="translate(843.5,122.875)"/>
<path d="M0 0 C1.010625 0.0825 2.02125 0.165 3.0625 0.25 C5.11386201 3.32704302 5.31215896 3.94584391 5.30541992 7.41430664 C5.30849655 8.24849625 5.31157318 9.08268585 5.31474304 9.94215393 C5.30755753 10.8390947 5.30037201 11.73603546 5.29296875 12.66015625 C5.29228142 14.0450248 5.29228142 14.0450248 5.2915802 15.45787048 C5.28855976 17.40885708 5.28067968 19.3598413 5.26831055 21.31079102 C5.25005011 24.30428567 5.24780092 27.29747108 5.24804688 30.29101562 C5.24313175 32.18489852 5.23730346 34.07877931 5.23046875 35.97265625 C5.22935593 36.87162125 5.2282431 37.77058624 5.22709656 38.6967926 C5.22071671 39.52783005 5.21433685 40.35886749 5.20776367 41.21508789 C5.20395187 41.94772354 5.20014008 42.68035919 5.19621277 43.43519592 C5.0625 45.25 5.0625 45.25 4.0625 47.25 C1.4225 47.25 -1.2175 47.25 -3.9375 47.25 C-5.86733787 13.30553038 -5.86733787 13.30553038 -3.9375 1.25 C-2.9375 0.25 -2.9375 0.25 0 0 Z " fill="#010103" transform="translate(474.9375,134.75)"/>
<path d="M0 0 C3.5 0.125 3.5 0.125 4.5 1.125 C4.59295815 2.56789787 4.61746513 4.01529785 4.61352539 5.46118164 C4.61344986 6.3820607 4.61337433 7.30293976 4.61329651 8.25172424 C4.60813522 9.25275681 4.60297394 10.25378937 4.59765625 11.28515625 C4.5962413 12.30475937 4.59482635 13.32436249 4.59336853 14.37486267 C4.58775097 17.64577107 4.5751955 20.91661213 4.5625 24.1875 C4.55748726 26.39908756 4.55292396 28.61067618 4.54882812 30.82226562 C4.53777583 36.25653654 4.52049944 41.69075684 4.5 47.125 C1.53 47.125 -1.44 47.125 -4.5 47.125 C-4.52464347 40.59220661 -4.54283291 34.05944002 -4.55493164 27.52661133 C-4.55997317 25.30232268 -4.56680623 23.07803737 -4.57543945 20.85375977 C-4.58751298 17.66421691 -4.59322996 14.47471771 -4.59765625 11.28515625 C-4.60281754 10.28412369 -4.60797882 9.28309113 -4.61329651 8.25172424 C-4.61337204 7.33084518 -4.61344757 6.40996613 -4.61352539 5.46118164 C-4.615746 4.64621719 -4.61796661 3.83125275 -4.62025452 2.99159241 C-4.40116007 -0.40919492 -3.51669647 0.1255963 0 0 Z " fill="#030407" transform="translate(530.5,134.875)"/>
<path d="M0 0 C0.66 0.66 1.32 1.32 2 2 C1.56892392 7.31660503 -0.7300205 10.89678549 -4.70703125 14.3515625 C-5.73183594 15.10179687 -6.75664062 15.85203125 -7.8125 16.625 C-8.82957031 17.38039062 -9.84664062 18.13578125 -10.89453125 18.9140625 C-19.41632373 24.63813443 -19.41632373 24.63813443 -25 24 C-26 23 -26 23 -26.3046875 20.65234375 C-26 18 -26 18 -24.3828125 16.19140625 C-23.63773438 15.65386719 -22.89265625 15.11632812 -22.125 14.5625 C-20.89523438 13.67111328 -20.89523438 13.67111328 -19.640625 12.76171875 C-16.28675795 10.5241536 -12.8601493 8.44761803 -9.375 6.421875 C-6.10282457 4.46287524 -3.06572154 2.26596809 0 0 Z " fill="#95BAC4" transform="translate(38,217)"/>
<path d="M0 0 C0.33 0 0.66 0 1 0 C1.86955383 16.52152269 -3.21749177 32.75522247 -14.29492188 45.13989258 C-15.66722119 46.59945723 -17.07483612 48.02558448 -18.484375 49.44921875 C-21.05258595 51.94189702 -21.05258595 51.94189702 -23.125 54.8125 C-25 57 -25 57 -28.25 57.3125 C-29.1575 57.209375 -30.065 57.10625 -31 57 C-30.01 55.02 -29.02 53.04 -28 51 C-27.34 51 -26.68 51 -26 51 C-26 50.34 -26 49.68 -26 49 C-25.34 49 -24.68 49 -24 49 C-23.814375 48.195625 -23.62875 47.39125 -23.4375 46.5625 C-21.7542452 42.39095551 -19.41460596 39.48868368 -16.55859375 36.05078125 C-14.81685146 33.98766072 -14.81685146 33.98766072 -14 31 C-13.01 31 -12.02 31 -11 31 C-10.67 30.34 -10.34 29.68 -10 29 C-9.03126953 28.58427734 -9.03126953 28.58427734 -8.04296875 28.16015625 C-5.83873384 27.16232014 -5.83873384 27.16232014 -4.98828125 24.93359375 C-3.65324793 20.00245912 -2.68558736 15.274521 -2.25 10.18359375 C-1.84986244 6.68864228 -0.92457871 3.39012195 0 0 Z " fill="#87B7C9" transform="translate(84,156)"/>
<path d="M0 0 C2.625 0.9375 2.625 0.9375 5 2 C4.87431641 2.93972656 4.87431641 2.93972656 4.74609375 3.8984375 C4.64425781 4.71570313 4.54242187 5.53296875 4.4375 6.375 C4.33308594 7.18710938 4.22867188 7.99921875 4.12109375 8.8359375 C3.81762672 11.04899186 3.81762672 11.04899186 5 13 C5.08372659 14.52148326 5.10730027 16.04655778 5.09765625 17.5703125 C5.09443359 18.46621094 5.09121094 19.36210937 5.08789062 20.28515625 C5.07951172 21.22230469 5.07113281 22.15945312 5.0625 23.125 C5.05798828 24.06988281 5.05347656 25.01476562 5.04882812 25.98828125 C5.03702357 28.32558387 5.02055759 30.66276061 5 33 C2.36 33 -0.28 33 -3 33 C-2.67 22.44 -2.34 11.88 -2 1 C-1.34 0.67 -0.68 0.34 0 0 Z " fill="#070405" transform="translate(664,149)"/>
<path d="M0 0 C0.72832031 -0.01224609 1.45664063 -0.02449219 2.20703125 -0.03710938 C4.09782978 -0.04235188 5.98815581 0.06516615 7.875 0.1875 C9.875 2.1875 9.875 2.1875 10.0625 5.25 C9.875 8.1875 9.875 8.1875 8.875 9.1875 C7.3862814 9.27419432 5.893555 9.29453494 4.40234375 9.28515625 C3.50322266 9.28193359 2.60410156 9.27871094 1.67773438 9.27539062 C0.73220703 9.26701172 -0.21332031 9.25863281 -1.1875 9.25 C-2.13689453 9.24548828 -3.08628906 9.24097656 -4.06445312 9.23632812 C-6.41803065 9.2245011 -8.77148477 9.20802025 -11.125 9.1875 C-11.125 8.1975 -11.125 7.2075 -11.125 6.1875 C-11.43588368 4.51650023 -11.76580332 2.84878463 -12.125 1.1875 C-8.15575579 -0.11133646 -4.12870441 0.00369294 0 0 Z " fill="#08080B" transform="translate(178.125,144.8125)"/>
<path d="M0 0 C0.66 0 1.32 0 2 0 C2 1.65 2 3.3 2 5 C3.98 5 5.96 5 8 5 C7.59007813 5.44730469 7.18015625 5.89460937 6.7578125 6.35546875 C6.21898437 6.96003906 5.68015625 7.56460938 5.125 8.1875 C4.32449219 9.07501953 4.32449219 9.07501953 3.5078125 9.98046875 C-0.56560109 15.43631027 -0.62678566 21.56861716 -1.2109375 28.11328125 C-1.40962969 30.08307453 -1.69769691 32.04342724 -2 34 C-2.99 34.495 -2.99 34.495 -4 35 C-4.03867187 33.41058594 -4.03867187 33.41058594 -4.078125 31.7890625 C-4.1343978 30.40099999 -4.19174533 29.01298075 -4.25 27.625 C-4.26417969 26.92632812 -4.27835938 26.22765625 -4.29296875 25.5078125 C-4.36035782 23.22282354 -4.36035782 23.22282354 -5 20 C-6.91388341 18.43516506 -6.91388341 18.43516506 -9 18 C-7.18552256 12.73801542 -5.22807696 8.58178665 -2 4 C-1.30570621 2.6808418 -0.62469505 1.35350594 0 0 Z " fill="#87B9CC" transform="translate(47,142)"/>
<path d="M0 0 C1.010625 0.0825 2.02125 0.165 3.0625 0.25 C5.12287303 3.34055955 5.31049242 3.95926162 5.28955078 7.44604492 C5.28932419 8.70701241 5.28932419 8.70701241 5.28909302 9.99345398 C5.27877045 10.89666885 5.26844788 11.79988373 5.2578125 12.73046875 C5.2549826 13.65845779 5.25215271 14.58644684 5.24923706 15.54255676 C5.23803836 18.50766879 5.21293435 21.47247921 5.1875 24.4375 C5.1774698 26.44726126 5.16834402 28.45702726 5.16015625 30.46679688 C5.13810004 35.39464753 5.10357229 40.32227262 5.0625 45.25 C4.4025 45.25 3.7425 45.25 3.0625 45.25 C3.0625 31.72 3.0625 18.19 3.0625 4.25 C1.4125 3.92 -0.2375 3.59 -1.9375 3.25 C-2.2675 17.77 -2.5975 32.29 -2.9375 47.25 C-3.2675 47.25 -3.5975 47.25 -3.9375 47.25 C-5.86733787 13.30553038 -5.86733787 13.30553038 -3.9375 1.25 C-2.9375 0.25 -2.9375 0.25 0 0 Z " fill="#0F1013" transform="translate(474.9375,134.75)"/>
<path d="M0 0 C0.33 1.98 0.66 3.96 1 6 C0.34 6 -0.32 6 -1 6 C-1.309375 7.2375 -1.309375 7.2375 -1.625 8.5 C-3.14253878 12.36282597 -5.13902917 14.99159759 -7.7578125 18.16796875 C-9.28059964 20.04493174 -9.28059964 20.04493174 -9 23 C-10.375 24.6875 -10.375 24.6875 -12 26 C-12.66 26 -13.32 26 -14 26 C-14 26.66 -14 27.32 -14 28 C-16.64738916 29.4606285 -17.89448334 30 -21 30 C-21.33 29.01 -21.66 28.02 -22 27 C-21.49210937 26.67128906 -20.98421875 26.34257812 -20.4609375 26.00390625 C-11.74963585 19.98429893 -6.33155575 10.99466724 -3 1 C-1 0 -1 0 0 0 Z " fill="#A2C7D7" transform="translate(72,179)"/>
<path d="M0 0 C1.26694663 2.28050393 2.01923072 4.10336512 2.5 6.6875 C2.665 7.450625 2.83 8.21375 3 9 C3.66 9.33 4.32 9.66 5 10 C3.35 12.64 1.7 15.28 0 18 C-0.99 17.67 -1.98 17.34 -3 17 C-2.67 15.68 -2.34 14.36 -2 13 C-2.66 12.67 -3.32 12.34 -4 12 C-6.11683841 12.89163577 -6.11683841 12.89163577 -8 14 C-8 8.21510474 -3.60416215 4.18862087 0 0 Z " fill="#08080B" transform="translate(95,217)"/>
<path d="M0 0 C3.0625 0.3125 3.0625 0.3125 5 1.375 C6.67926907 4.43719653 5.74871125 7.00620941 5.0625 10.3125 C-0.35288462 11.54326923 -0.35288462 11.54326923 -3.3125 10.375 C-3.84875 10.024375 -4.385 9.67375 -4.9375 9.3125 C-5.0625 5.9375 -5.0625 5.9375 -4.9375 2.3125 C-2.9375 0.3125 -2.9375 0.3125 0 0 Z " fill="#060505" transform="translate(529.9375,118.6875)"/>
<path d="M0 0 C1.13494196 3.40482589 0.73342701 4.56746283 0 8 C-0.1327879 10.14377171 -0.22291871 12.29041192 -0.28125 14.4375 C-0.31863281 15.66210938 -0.35601562 16.88671875 -0.39453125 18.1484375 C-0.42933594 19.41945312 -0.46414062 20.69046875 -0.5 22 C-0.5690319 24.52094271 -0.6418019 27.0417865 -0.71875 29.5625 C-0.74904297 30.67753906 -0.77933594 31.79257813 -0.81054688 32.94140625 C-0.98287936 35.72359871 -1.37621148 38.28765639 -2 41 C-2.33 41 -2.66 41 -3 41 C-3.75168618 36.97881486 -4.12815617 33.17486471 -4.1328125 29.0859375 C-4.13474609 27.45011719 -4.13474609 27.45011719 -4.13671875 25.78125 C-4.13285156 24.6571875 -4.12898438 23.533125 -4.125 22.375 C-4.12886719 21.24320313 -4.13273437 20.11140625 -4.13671875 18.9453125 C-4.13542969 17.85734375 -4.13414063 16.769375 -4.1328125 15.6484375 C-4.13168457 14.66020996 -4.13055664 13.67198242 -4.12939453 12.65380859 C-4.01347858 10.27643796 -3.67833736 8.27212701 -3 6 C-2.34 6 -1.68 6 -1 6 C-1.020625 5.195625 -1.04125 4.39125 -1.0625 3.5625 C-1 1 -1 1 0 0 Z " fill="#8FBDD3" transform="translate(37,164)"/>
<path d="M0 0 C3.5 0.125 3.5 0.125 4.5 1.125 C4.57226502 2.97787502 4.5838122 4.83333878 4.5625 6.6875 C4.55347656 7.69941406 4.54445313 8.71132812 4.53515625 9.75390625 C4.52355469 10.53636719 4.51195312 11.31882813 4.5 12.125 C5.11488281 12.09019531 5.72976563 12.05539063 6.36328125 12.01953125 C7.57564453 11.97892578 7.57564453 11.97892578 8.8125 11.9375 C9.61300781 11.90269531 10.41351562 11.86789063 11.23828125 11.83203125 C13.5 12.125 13.5 12.125 15.3125 13.46875 C16.5 15.125 16.5 15.125 16.1875 17.8125 C15.8471875 18.9571875 15.8471875 18.9571875 15.5 20.125 C15.17 20.125 14.84 20.125 14.5 20.125 C14.5 18.145 14.5 16.165 14.5 14.125 C13.51 14.455 12.52 14.785 11.5 15.125 C10.10560336 15.19165376 8.70830125 15.21038199 7.3125 15.1875 C5.4253125 15.1565625 5.4253125 15.1565625 3.5 15.125 C3.5 10.835 3.5 6.545 3.5 2.125 C1.19 2.125 -1.12 2.125 -3.5 2.125 C-3.17 6.415 -2.84 10.705 -2.5 15.125 C-4.48 15.125 -6.46 15.125 -8.5 15.125 C-8.5 14.135 -8.5 13.145 -8.5 12.125 C-7.18 12.125 -5.86 12.125 -4.5 12.125 C-4.51160156 11.34253906 -4.52320313 10.56007812 -4.53515625 9.75390625 C-4.54417969 8.74199219 -4.55320312 7.73007813 -4.5625 6.6875 C-4.57410156 5.67816406 -4.58570313 4.66882813 -4.59765625 3.62890625 C-4.44506773 -0.28346347 -4.05187323 0.14470976 0 0 Z " fill="#19181B" transform="translate(711.5,122.875)"/>
<path d="M0 0 C1.65 0 3.3 0 5 0 C5 0.66 5 1.32 5 2 C3.68 2 2.36 2 1 2 C1 9.26 1 16.52 1 24 C4.96 24 8.92 24 13 24 C13 24.33 13 24.66 13 25 C9.7 25 6.4 25 3 25 C3.33 25.99 3.66 26.98 4 28 C3.67 28.33 3.34 28.66 3 29 C6.63 29.66 10.26 30.32 14 31 C14 31.33 14 31.66 14 32 C13.15695312 32.03738281 12.31390625 32.07476562 11.4453125 32.11328125 C9.80175781 32.21189453 9.80175781 32.21189453 8.125 32.3125 C7.03445313 32.37050781 5.94390625 32.42851562 4.8203125 32.48828125 C3.42425781 32.74158203 3.42425781 32.74158203 2 33 C1.34 33.99 0.68 34.98 0 36 C-1.125 29.375 -1.125 29.375 0 26 C-0.66 25.34 -1.32 24.68 -2 24 C-1.34 24 -0.68 24 0 24 C0 16.08 0 8.16 0 0 Z " fill="#19191D" transform="translate(668,126)"/>
<path d="M0 0 C1 1 1 1 1.125 4.5 C1 8 1 8 0 9 C-1.8125 9.1328125 -1.8125 9.1328125 -4 9.125 C-4.721875 9.12757813 -5.44375 9.13015625 -6.1875 9.1328125 C-8 9 -8 9 -9 8 C-9.14115161 5.32941149 -9.04247107 2.67567762 -9 0 C-5.90842747 -1.54578627 -3.31526981 -0.60277633 0 0 Z " fill="#0C0B0B" transform="translate(479,120)"/>
<path d="M0 0 C3.5 0.125 3.5 0.125 4.5 1.125 C4.59295815 2.56789787 4.61746513 4.01529785 4.61352539 5.46118164 C4.61344986 6.3820607 4.61337433 7.30293976 4.61329651 8.25172424 C4.60813522 9.25275681 4.60297394 10.25378937 4.59765625 11.28515625 C4.5962413 12.30475937 4.59482635 13.32436249 4.59336853 14.37486267 C4.58775097 17.64577107 4.5751955 20.91661213 4.5625 24.1875 C4.55748726 26.39908756 4.55292396 28.61067618 4.54882812 30.82226562 C4.53777584 36.25653357 4.52102063 41.69076197 4.5 47.125 C4.17 47.125 3.84 47.125 3.5 47.125 C3.5 32.605 3.5 18.085 3.5 3.125 C1.52 3.125 -0.46 3.125 -2.5 3.125 C-2.83 7.745 -3.16 12.365 -3.5 17.125 C-3.83 17.125 -4.16 17.125 -4.5 17.125 C-4.52684679 14.47909986 -4.54676357 11.83346904 -4.5625 9.1875 C-4.57087891 8.43275391 -4.57925781 7.67800781 -4.58789062 6.90039062 C-4.59652441 4.97505687 -4.55224333 3.04964419 -4.5 1.125 C-3.5 0.125 -3.5 0.125 0 0 Z " fill="#2C2D31" transform="translate(530.5,134.875)"/>
<path d="M0 0 C0.33 0 0.66 0 1 0 C1.55142541 10.05471446 2.08971429 20.11778598 2.25 30.1875 C2.27578125 31.45980469 2.3015625 32.73210937 2.328125 34.04296875 C2.21984375 35.01878906 2.1115625 35.99460938 2 37 C1.01 37.66 0.02 38.32 -1 39 C-1.02496472 34.89234358 -1.04298366 30.78471736 -1.05493164 26.67700195 C-1.05991957 25.28343943 -1.06671231 23.88988202 -1.07543945 22.49633789 C-1.12158795 14.93069922 -1.05558458 7.50545574 0 0 Z " fill="#191113" transform="translate(527,143)"/>
<path d="M0 0 C5.84152022 -0.59607349 10.00871967 -0.34157749 14.69140625 3.421875 C16.86374708 6.0416532 16.93533622 8.70214701 17 12 C12.44262737 11.56179109 9.42346555 11.14958831 6 8 C6.99 8 7.98 8 9 8 C9 7.34 9 6.68 9 6 C9.66 6 10.32 6 11 6 C9.30820672 3.95780294 8.36272334 3.08206694 5.73828125 2.48828125 C4.93777344 2.43027344 4.13726562 2.37226563 3.3125 2.3125 C2.10013672 2.21388672 2.10013672 2.21388672 0.86328125 2.11328125 C0.24839844 2.07589844 -0.36648438 2.03851563 -1 2 C-0.67 1.34 -0.34 0.68 0 0 Z " fill="#0F0D10" transform="translate(499,135)"/>
<path d="M0 0 C0.99 0 1.98 0 3 0 C8.88639293 9.38347508 9.1793 17.1623111 9 28 C8.01 28 7.02 28 6 28 C4.8903424 24.67102719 5.033541 22.42862442 5.1875 18.9375 C5.25979979 12.47389885 3.89174962 7.72543198 1 2 C0.67 1.34 0.34 0.68 0 0 Z " fill="#8CBACB" transform="translate(65,152)"/>
<path d="M0 0 C0.93513428 0.00298096 1.87026855 0.00596191 2.83374023 0.0090332 C3.85274414 0.00967773 4.87174805 0.01032227 5.92163086 0.01098633 C6.98446289 0.02709961 8.04729492 0.04321289 9.14233398 0.05981445 C10.74238281 0.05498047 10.74238281 0.05498047 12.37475586 0.05004883 C20.3128687 0.10534917 20.3128687 0.10534917 22.57983398 2.37231445 C22.20483398 4.49731445 22.20483398 4.49731445 21.57983398 6.37231445 C21.24983398 5.38231445 20.91983398 4.39231445 20.57983398 3.37231445 C11.99983398 3.37231445 3.41983398 3.37231445 -5.42016602 3.37231445 C-2.42016602 0.37231445 -2.42016602 0.37231445 0 0 Z " fill="#424145" transform="translate(325.420166015625,134.627685546875)"/>
<path d="M0 0 C0.66 0.66 1.32 1.32 2 2 C1.625 4.625 1.625 4.625 1 7 C0.01 7.33 -0.98 7.66 -2 8 C-2 7.34 -2 6.68 -2 6 C-5.4388795 7.88801228 -8.53974256 9.6183231 -11.5625 12.125 C-14.27729618 14.21330475 -16.72055977 15.08480738 -20 16 C-17.94186565 12.0441054 -16.15133607 10.13240729 -12.25 8 C-7.94392019 5.5628346 -3.9774168 2.93982981 0 0 Z " fill="#ABC5CE" transform="translate(38,217)"/>
<path d="M0 0 C-0.33 0.99 -0.66 1.98 -1 3 C-1.33 3 -1.66 3 -2 3 C-3.04037621 16.67351584 -3.11252038 30.2915551 -3 44 C-3.99 44.495 -3.99 44.495 -5 45 C-5.07409532 39.07351426 -5.12857616 33.14729747 -5.16479492 27.22045898 C-5.17989179 25.20380966 -5.20037115 23.18719321 -5.22631836 21.1706543 C-5.26266211 18.27384329 -5.2797172 15.37746594 -5.29296875 12.48046875 C-5.30845261 11.57725388 -5.32393646 10.674039 -5.33988953 9.74345398 C-5.34011612 8.90280899 -5.34034271 8.062164 -5.34057617 7.19604492 C-5.34723801 6.45658127 -5.35389984 5.71711761 -5.36076355 4.95524597 C-4.78468051 1.83302357 -3.24061381 0 0 0 Z " fill="#201A1A" transform="translate(597,135)"/>
<path d="M0 0 C1.79296875 1.53125 1.79296875 1.53125 3 3 C1.92621094 2.99097656 0.85242188 2.98195312 -0.25390625 2.97265625 C-9.52520529 2.80483706 -9.52520529 2.80483706 -17.3125 7.125 C-19.95957262 10.47195308 -21.60654449 13.98356943 -23 18 C-23.96755422 15.44496161 -24.1589889 14.37186106 -23.06640625 11.81640625 C-17.38797826 3.30613884 -10.81318469 -2.30476405 0 0 Z " fill="#282728" transform="translate(378,135)"/>
<path d="M0 0 C0.33 0.66 0.66 1.32 1 2 C0.0625 3.9375 0.0625 3.9375 -2 6 C-4.9858081 6.66174825 -7.94861869 6.87205948 -11 7 C-11.66 5.68 -12.32 4.36 -13 3 C-4.57142857 -0.42857143 -4.57142857 -0.42857143 0 0 Z " fill="#060306" transform="translate(230,17)"/>
<path d="M0 0 C0.33 1.32 0.66 2.64 1 4 C-5.02818509 8.28670939 -9.71304215 8.474377 -17 8 C-17.33 7.34 -17.66 6.68 -18 6 C-12.64878069 4.56663769 -7.50808397 3.59015185 -2 3 C-2 2.34 -2 1.68 -2 1 C-1.34 0.67 -0.68 0.34 0 0 Z " fill="#060505" transform="translate(84,240)"/>
<path d="M0 0 C1.2065625 0.0309375 1.2065625 0.0309375 2.4375 0.0625 C2.1075 1.0525 1.7775 2.0425 1.4375 3.0625 C0.4475 3.3925 -0.5425 3.7225 -1.5625 4.0625 C-2.7071875 5.2690625 -2.7071875 5.2690625 -3.875 6.5 C-6.73545492 9.22741051 -8.78056528 10.09502833 -12.5625 11.0625 C-13.2225 10.4025 -13.8825 9.7425 -14.5625 9.0625 C-13.9025 8.4025 -13.2425 7.7425 -12.5625 7.0625 C-11.5725 7.0625 -10.5825 7.0625 -9.5625 7.0625 C-9.5625 6.4025 -9.5625 5.7425 -9.5625 5.0625 C-7.59527992 3.68126037 -5.59381672 2.34761874 -3.5625 1.0625 C-2.5625 0.0625 -2.5625 0.0625 0 0 Z " fill="#213947" transform="translate(55.5625,212.9375)"/>
<path d="M0 0 C0.66 0.33 1.32 0.66 2 1 C1.45730469 1.53109375 0.91460937 2.0621875 0.35546875 2.609375 C-0.71767578 3.66898438 -0.71767578 3.66898438 -1.8125 4.75 C-2.87404297 5.79414063 -2.87404297 5.79414063 -3.95703125 6.859375 C-6.03390574 8.92519887 -6.03390574 8.92519887 -7.5625 11.25 C-8.036875 11.8275 -8.51125 12.405 -9 13 C-12.1875 13.25 -12.1875 13.25 -15 13 C-14.01 11.02 -13.02 9.04 -12 7 C-11.34 7 -10.68 7 -10 7 C-10 6.34 -10 5.68 -10 5 C-9.443125 5.268125 -8.88625 5.53625 -8.3125 5.8125 C-7.1678125 5.9053125 -7.1678125 5.9053125 -6 6 C-3.27073609 3.68743506 -3.27073609 3.68743506 -1 1 C-0.67 0.67 -0.34 0.34 0 0 Z " fill="#8BB7C5" transform="translate(68,200)"/>
<path d="M0 0 C0.33 0 0.66 0 1 0 C1 1.65 1 3.3 1 5 C7.27 5 13.54 5 20 5 C20.33 3.68 20.66 2.36 21 1 C21 2.98 21 4.96 21 7 C13.74 7 6.48 7 -1 7 C-2 4 -2 4 -1.0625 1.8125 C-0.5365625 0.9153125 -0.5365625 0.9153125 0 0 Z " fill="#373638" transform="translate(362,149)"/>
<path d="M0 0 C0.33 0 0.66 0 1 0 C1 3.63 1 7.26 1 11 C3.165625 10.7215625 3.165625 10.7215625 5.375 10.4375 C9.75 9.875 9.75 9.875 12 11 C12 12.98 12 14.96 12 17 C11.34 15.68 10.68 14.36 10 13 C9.38511719 13.08378906 8.77023437 13.16757813 8.13671875 13.25390625 C7.32847656 13.35574219 6.52023437 13.45757812 5.6875 13.5625 C4.88699219 13.66691406 4.08648438 13.77132812 3.26171875 13.87890625 C1 14 1 14 -2 13 C-1.48041715 8.62065881 -0.94324258 4.31196609 0 0 Z " fill="#15141A" transform="translate(847,125)"/>
<path d="M0 0 C-0.33 1.32 -0.66 2.64 -1 4 C-1.66 4 -2.32 4 -3 4 C-3.2784375 4.8971875 -3.2784375 4.8971875 -3.5625 5.8125 C-5.71810455 9.09276779 -8.35676979 9.78558993 -12 11 C-12.99 10.67 -13.98 10.34 -15 10 C-13.75160501 8.894019 -12.50120766 7.79029799 -11.25 6.6875 C-10.55390625 6.07261719 -9.8578125 5.45773438 -9.140625 4.82421875 C-3.47965739 0 -3.47965739 0 0 0 Z " fill="#8EB5C2" transform="translate(36,223)"/>
<path d="M0 0 C0.74507812 0.00451172 1.49015625 0.00902344 2.2578125 0.01367188 C4.0885764 0.02540754 5.91929873 0.0433415 7.75 0.0625 C8.08 0.7225 8.41 1.3825 8.75 2.0625 C6.453463 3.2107685 5.16686833 3.17811175 2.6171875 3.16015625 C1.81152344 3.15693359 1.00585938 3.15371094 0.17578125 3.15039062 C-0.66597656 3.14201172 -1.50773438 3.13363281 -2.375 3.125 C-3.22449219 3.12048828 -4.07398438 3.11597656 -4.94921875 3.11132812 C-7.04950909 3.09952874 -9.1497633 3.08159306 -11.25 3.0625 C-11.58 2.4025 -11.91 1.7425 -12.25 1.0625 C-8.15996141 -0.08732602 -4.21822949 -0.04844256 0 0 Z " fill="#333237" transform="translate(178.25,144.9375)"/>
<path d="M0 0 C0.33 0.99 0.66 1.98 1 3 C-0.86595028 4.63648067 -2.74163069 6.25877527 -4.625 7.875 C-5.40810547 8.56529297 -5.40810547 8.56529297 -6.20703125 9.26953125 C-9.64157756 12.19525588 -12.63809482 13.86040315 -17 15 C-15.56948095 11.34251076 -14.06855864 10.22629466 -10.5625 8.5625 C-6.68462937 6.55841646 -4.98390682 4.96781364 -3 1 C-2.01 0.67 -1.02 0.34 0 0 Z " fill="#A5C6D0" transform="translate(37,224)"/>
<path d="M0 0 C3.10408807 -0.05807043 6.2080364 -0.09361914 9.3125 -0.125 C10.19357422 -0.14175781 11.07464844 -0.15851563 11.98242188 -0.17578125 C12.82998047 -0.18222656 13.67753906 -0.18867187 14.55078125 -0.1953125 C15.72120972 -0.21102295 15.72120972 -0.21102295 16.9152832 -0.22705078 C19 0 19 0 22 2 C21 3 21 3 19.05053711 3.11352539 C18.2178833 3.10828857 17.38522949 3.10305176 16.52734375 3.09765625 C15.62822266 3.09443359 14.72910156 3.09121094 13.80273438 3.08789062 C12.85720703 3.07951172 11.91167969 3.07113281 10.9375 3.0625 C9.98810547 3.05798828 9.03871094 3.05347656 8.06054688 3.04882812 C5.70696935 3.0370011 3.35351523 3.02052025 1 3 C0.67 3.66 0.34 4.32 0 5 C0 3.35 0 1.7 0 0 Z " fill="#1C1A1C" transform="translate(166,125)"/>
<path d="M0 0 C0.33 0 0.66 0 1 0 C1.45301928 8.60736631 0.87748929 19.68376607 -4 27 C-4.125 20.375 -4.125 20.375 -3 17 C-2.82694015 15.60728024 -2.68375831 14.21068256 -2.5625 12.8125 C-2.11292494 8.38926149 -1.16902594 4.28642845 0 0 Z " fill="#82AAB9" transform="translate(84,156)"/>
<path d="M0 0 C0.66 0.33 1.32 0.66 2 1 C0 7 -2 13 -4 19 C-4.66 19 -5.32 19 -6 19 C-5.59652415 12.64525533 -4.78162319 4.78162319 0 0 Z " fill="#A5C9D8" transform="translate(40,151)"/>
<path d="M0 0 C0.66 0 1.32 0 2 0 C2.33 0.99 2.66 1.98 3 3 C2.67 3.33 2.34 3.66 2 4 C5.63 4.66 9.26 5.32 13 6 C13 6.33 13 6.66 13 7 C11.73542969 7.05607422 11.73542969 7.05607422 10.4453125 7.11328125 C8.80175781 7.21189453 8.80175781 7.21189453 7.125 7.3125 C5.48917969 7.39951172 5.48917969 7.39951172 3.8203125 7.48828125 C2.42425781 7.74158203 2.42425781 7.74158203 1 8 C0.34 8.99 -0.32 9.98 -1 11 C-2.23076923 4.6 -2.23076923 4.6 -1.0625 1.5625 C-0.711875 1.046875 -0.36125 0.53125 0 0 Z " fill="#09090E" transform="translate(669,151)"/>
<path d="M0 0 C3.27075883 -0.0580476 6.54138524 -0.09361165 9.8125 -0.125 C10.74126953 -0.14175781 11.67003906 -0.15851563 12.62695312 -0.17578125 C13.51962891 -0.18222656 14.41230469 -0.18867187 15.33203125 -0.1953125 C16.15421143 -0.20578613 16.9763916 -0.21625977 17.82348633 -0.22705078 C20 0 20 0 23 2 C15.02509872 3.32915021 7.05813281 3.08801359 -1 3 C-0.67 2.01 -0.34 1.02 0 0 Z " fill="#1C1B1C" transform="translate(662,119)"/>
<path d="M0 0 C1.134375 0.020625 2.26875 0.04125 3.4375 0.0625 C2.7775 0.7225 2.1175 1.3825 1.4375 2.0625 C-0.2125 2.0625 -1.8625 2.0625 -3.5625 2.0625 C-3.2325 6.3525 -2.9025 10.6425 -2.5625 15.0625 C-4.5425 15.0625 -6.5225 15.0625 -8.5625 15.0625 C-8.5625 14.0725 -8.5625 13.0825 -8.5625 12.0625 C-7.2425 12.0625 -5.9225 12.0625 -4.5625 12.0625 C-4.57410156 11.28003906 -4.58570313 10.49757812 -4.59765625 9.69140625 C-4.60667969 8.67949219 -4.61570312 7.66757813 -4.625 6.625 C-4.63660156 5.61566406 -4.64820313 4.60632813 -4.66015625 3.56640625 C-4.50618986 -0.38129207 -4.09874205 0.07190776 0 0 Z " fill="#272423" transform="translate(711.5625,122.9375)"/>
<path d="M0 0 C0.78375 0.04125 1.5675 0.0825 2.375 0.125 C2.045 0.785 1.715 1.445 1.375 2.125 C0.385 2.455 -0.605 2.785 -1.625 3.125 C-1.625 4.115 -1.625 5.105 -1.625 6.125 C-1.955 7.115 -2.285 8.105 -2.625 9.125 C-0.315 9.125 1.995 9.125 4.375 9.125 C4.705 8.465 5.035 7.805 5.375 7.125 C5.375 8.115 5.375 9.105 5.375 10.125 C-0.04038462 11.35576923 -0.04038462 11.35576923 -3 10.1875 C-3.53625 9.836875 -4.0725 9.48625 -4.625 9.125 C-4.75 5.75 -4.75 5.75 -4.625 2.125 C-2.625 0.125 -2.625 0.125 0 0 Z " fill="#1F1B1D" transform="translate(529.625,118.875)"/>
<path d="M0 0 C4.45549507 1.36140127 6.25434405 3.30756614 9 7 C9.66 7.33 10.32 7.66 11 8 C10.67 9.65 10.34 11.3 10 13 C9.34 13 8.68 13 8 13 C8 12.01 8 11.02 8 10 C6.3540349 8.31288577 4.68762851 6.6454378 3 5 C3 4.34 3 3.68 3 3 C2.34 3 1.68 3 1 3 C0.67 2.01 0.34 1.02 0 0 Z " fill="#060608" transform="translate(57,218)"/>
<path d="M0 0 C1.4540625 0.0309375 1.4540625 0.0309375 2.9375 0.0625 C2.6075 0.7225 2.2775 1.3825 1.9375 2.0625 C0.2875 2.0625 -1.3625 2.0625 -3.0625 2.0625 C-3.0625 6.3525 -3.0625 10.6425 -3.0625 15.0625 C-5.0425 15.0625 -7.0225 15.0625 -9.0625 15.0625 C-9.7225 14.4025 -10.3825 13.7425 -11.0625 13.0625 C-7.5975 12.5675 -7.5975 12.5675 -4.0625 12.0625 C-4.07410156 11.28003906 -4.08570313 10.49757812 -4.09765625 9.69140625 C-4.10667969 8.67949219 -4.11570312 7.66757813 -4.125 6.625 C-4.13660156 5.61566406 -4.14820313 4.60632813 -4.16015625 3.56640625 C-4.01596662 -0.13061575 -3.76355726 0.07680729 0 0 Z " fill="#232120" transform="translate(843.0625,122.9375)"/>
<path d="M0 0 C4.19296167 0.06674758 6.82662651 0.62380121 10.1875 3.3125 C6.41378488 4.6482457 3.32918653 4.03658671 -0.5625 3.375 C-2.31820313 3.08302734 -2.31820313 3.08302734 -4.109375 2.78515625 C-5.00140625 2.62917969 -5.8934375 2.47320312 -6.8125 2.3125 C-4.32244323 -0.17755677 -3.43779268 0.01546234 0 0 Z " fill="#252427" transform="translate(285.8125,134.6875)"/>
<path d="M0 0 C0.33 0 0.66 0 1 0 C0.67 5.61 0.34 11.22 0 17 C-0.66 17.33 -1.32 17.66 -2 18 C-2.05397335 15.5622037 -2.09365616 13.12560315 -2.125 10.6875 C-2.14175781 9.99720703 -2.15851562 9.30691406 -2.17578125 8.59570312 C-2.21217794 4.82864604 -2.14378864 3.21568296 0 0 Z " fill="#98C5D7" transform="translate(45,159)"/>
<path d="M0 0 C1.828125 0.20703125 1.828125 0.20703125 4 1 C7.42953134 5.79231879 9.78437264 11.03876797 9 17 C7 16 7 16 6.40234375 14.2578125 C6.24894531 13.55398437 6.09554687 12.85015625 5.9375 12.125 C4.83529336 7.18784299 3.68720542 4.56826331 0 1 C0 0.67 0 0.34 0 0 Z " fill="#7AA5B9" transform="translate(75,138)"/>
<path d="M0 0 C0.66 1.32 1.32 2.64 2 4 C1.34 4 0.68 4 0 4 C-0.2475 4.86625 -0.495 5.7325 -0.75 6.625 C-2.06778613 10.18302254 -3.80186822 12.9226155 -6 16 C-6.33 15.34 -6.66 14.68 -7 14 C-5.92481882 11.55667274 -4.80191434 9.23245477 -3.5625 6.875 C-3.22412109 6.21628906 -2.88574219 5.55757813 -2.53710938 4.87890625 C-1.69850074 3.24893453 -0.85015189 1.62398091 0 0 Z " fill="#0F0D0E" transform="translate(149,87)"/>
<path d="M0 0 C1.4540625 0.0309375 1.4540625 0.0309375 2.9375 0.0625 C3.2675 0.7225 3.5975 1.3825 3.9375 2.0625 C1.9575 2.3925 -0.0225 2.7225 -2.0625 3.0625 C-2.3925 6.6925 -2.7225 10.3225 -3.0625 14.0625 C-3.3925 14.0625 -3.7225 14.0625 -4.0625 14.0625 C-4.08935938 11.91673363 -4.10883088 9.77087355 -4.125 7.625 C-4.13660156 6.43003906 -4.14820313 5.23507813 -4.16015625 4.00390625 C-4.02995498 0.08224398 -4.02995498 0.08224398 0 0 Z " fill="#272526" transform="translate(475.0625,134.9375)"/>
<path d="M0 0 C0.66 1.32 1.32 2.64 2 4 C0.875 5.9375 0.875 5.9375 -1 8 C-4.1875 8.75 -4.1875 8.75 -7 9 C-6.02180976 7.68677212 -5.0424189 6.37443848 -4.0625 5.0625 C-3.51722656 4.33160156 -2.97195312 3.60070312 -2.41015625 2.84765625 C-1 1 -1 1 0 0 Z " fill="#0F0F13" transform="translate(95,217)"/>
<path d="M0 0 C0.66 0.66 1.32 1.32 2 2 C0.625 3.5 0.625 3.5 -1 5 C-1.66 5 -2.32 5 -3 5 C-3 5.66 -3 6.32 -3 7 C-5.64738916 8.4606285 -6.89448334 9 -10 9 C-10.33 8.01 -10.66 7.02 -11 6 C-10.01 5.67 -9.02 5.34 -8 5 C-8 5.66 -8 6.32 -8 7 C-4.04 3.535 -4.04 3.535 0 0 Z " fill="#93C4D4" transform="translate(61,200)"/>
<path d="M0 0 C0.99 0 1.98 0 3 0 C2.37312706 2.92540704 1.64872507 5.4835249 0 8 C-2.125 8.75 -2.125 8.75 -4 9 C-2.80100302 5.9168649 -1.52299523 2.93720508 0 0 Z " fill="#9FC0CE" transform="translate(43,143)"/>
<path d="M0 0 C0.86367188 -0.01675781 1.72734375 -0.03351563 2.6171875 -0.05078125 C5.125 0.3125 5.125 0.3125 9.125 3.3125 C3.845 2.9825 -1.435 2.6525 -6.875 2.3125 C-4.37490913 -0.18759087 -3.4537141 0.01537261 0 0 Z " fill="#302D30" transform="translate(563.875,134.6875)"/>
<path d="M0 0 C0.66 0.66 1.32 1.32 2 2 C1.625 4.625 1.625 4.625 1 7 C0.01 7.33 -0.98 7.66 -2 8 C-2.66 6.68 -3.32 5.36 -4 4 C-2.68 2.68 -1.36 1.36 0 0 Z " fill="#B3D2E3" transform="translate(38,217)"/>
<path d="M0 0 C2 1 2 1 2.88671875 3.3984375 C3.15097656 4.38070312 3.41523437 5.36296875 3.6875 6.375 C3.95949219 7.35210937 4.23148438 8.32921875 4.51171875 9.3359375 C5 12 5 12 4 15 C-1.125 4.75 -1.125 4.75 0 0 Z " fill="#76A9BB" transform="translate(45,188)"/>
<path d="M0 0 C2.31 0.33 4.62 0.66 7 1 C7 1.66 7 2.32 7 3 C6.360625 3.268125 5.72125 3.53625 5.0625 3.8125 C2.66868314 4.88667752 2.66868314 4.88667752 2 8 C1.01 8.33 0.02 8.66 -1 9 C-0.67 6.03 -0.34 3.06 0 0 Z " fill="#83A2B3" transform="translate(39,217)"/>
<path d="M0 0 C5.62541841 0.45003347 8.61487125 1.68441485 13 5 C12.67 5.66 12.34 6.32 12 7 C10.02 6.01 8.04 5.02 6 4 C6 3.34 6 2.68 6 2 C4.35 2 2.7 2 1 2 C0.67 1.34 0.34 0.68 0 0 Z " fill="#8DB2C5" transform="translate(63,130)"/>
<path d="M0 0 C1.45742463 -0.08096803 2.91612807 -0.13917774 4.375 -0.1875 C5.18710937 -0.22230469 5.99921875 -0.25710937 6.8359375 -0.29296875 C7.55007813 -0.19628906 8.26421875 -0.09960938 9 0 C9.66 0.99 10.32 1.98 11 3 C7.04 2.67 3.08 2.34 -1 2 C-0.67 1.34 -0.34 0.68 0 0 Z " fill="#262527" transform="translate(877,135)"/>
<path d="M0 0 C0.33 0.66 0.66 1.32 1 2 C-0.375 4 -0.375 4 -2 6 C-2.66 6 -3.32 6 -4 6 C-4.33 7.32 -4.66 8.64 -5 10 C-5.33 10 -5.66 10 -6 10 C-6.375 7.8125 -6.375 7.8125 -6 5 C-4.16038352 3.00977164 -2.20813852 1.61010101 0 0 Z " fill="#A2BEC5" transform="translate(18,230)"/>
<path d="M0 0 C1.43655854 -0.08131463 2.8744483 -0.13933559 4.3125 -0.1875 C5.51326172 -0.23970703 5.51326172 -0.23970703 6.73828125 -0.29296875 C9 0 9 0 12 3 C7.71 2.67 3.42 2.34 -1 2 C-0.67 1.34 -0.34 0.68 0 0 Z " fill="#302B2F" transform="translate(499,135)"/>
<path d="M0 0 C0.99 0.33 1.98 0.66 3 1 C3.73046875 3.06640625 3.73046875 3.06640625 4.1875 5.5625 C4.34605469 6.38878906 4.50460938 7.21507812 4.66796875 8.06640625 C4.77753906 8.70449219 4.88710938 9.34257812 5 10 C1.32769295 6.92000054 0.43197635 4.7517398 0 0 Z " fill="#030308" transform="translate(43,225)"/>
<path d="M0 0 C1.1484375 1.640625 1.1484375 1.640625 2 4 C1.1015625 6.796875 1.1015625 6.796875 -0.375 9.75 C-0.85710937 10.73484375 -1.33921875 11.7196875 -1.8359375 12.734375 C-2.22007812 13.48203125 -2.60421875 14.2296875 -3 15 C-4.28497537 11.14507389 -3.4052209 9.59653164 -2.0625 5.8125 C-1.68222656 4.72582031 -1.30195313 3.63914063 -0.91015625 2.51953125 C-0.60980469 1.68808594 -0.30945313 0.85664063 0 0 Z " fill="#181616" transform="translate(447,147)"/>
<path d="M0 0 C-0.625 1.875 -0.625 1.875 -2 4 C-5.125 5.25 -5.125 5.25 -8 6 C-4.61538462 0 -4.61538462 0 0 0 Z " fill="#AFCEDB" transform="translate(26,227)"/>
<path d="M0 0 C0.66 0.33 1.32 0.66 2 1 C-1.33333333 4.33333333 -4.66666667 7.66666667 -8 11 C-7.52653165 6.73878485 -5.03860562 4.81626862 -2 2 C-1.34 1.34 -0.68 0.68 0 0 Z " fill="#98BBC2" transform="translate(68,200)"/>
<path d="M0 0 C0.33 0 0.66 0 1 0 C1.33 3.96 1.66 7.92 2 12 C1.67 11.01 1.34 10.02 1 9 C0.01 8.67 -0.98 8.34 -2 8 C-1.125 1.125 -1.125 1.125 0 0 Z " fill="#89B9CD" transform="translate(44,176)"/>
<path d="M0 0 C0.33 0 0.66 0 1 0 C1 3.63 1 7.26 1 11 C0.01 11 -0.98 11 -2 11 C-2.33 10.01 -2.66 9.02 -3 8 C-2.01 7.67 -1.02 7.34 0 7 C0 4.69 0 2.38 0 0 Z " fill="#8EC0D6" transform="translate(73,169)"/>
<path d="M0 0 C1.32 0.99 2.64 1.98 4 3 C3.34 5.64 2.68 8.28 2 11 C-0.32590854 7.36576791 -0.16265833 4.22911669 0 0 Z " fill="#89BBD0" transform="translate(81,153)"/>
<path d="M0 0 C2.31 0.33 4.62 0.66 7 1 C7 2.98 7 4.96 7 7 C6.6596875 6.0409375 6.6596875 6.0409375 6.3125 5.0625 C5.14749104 2.72806339 5.14749104 2.72806339 2.375 2.25 C1.59125 2.1675 0.8075 2.085 0 2 C0 1.34 0 0.68 0 0 Z " fill="#1C1B1F" transform="translate(852,135)"/>
<path d="M0 0 C2.19050021 0.09017996 4.378466 0.24666208 6.5625 0.4375 C7.76003906 0.53933594 8.95757813 0.64117187 10.19140625 0.74609375 C11.11824219 0.82988281 12.04507813 0.91367188 13 1 C13 1.33 13 1.66 13 2 C11.73542969 2.05607422 11.73542969 2.05607422 10.4453125 2.11328125 C8.80175781 2.21189453 8.80175781 2.21189453 7.125 2.3125 C6.03445313 2.37050781 4.94390625 2.42851562 3.8203125 2.48828125 C2.42425781 2.74158203 2.42425781 2.74158203 1 3 C0.34 3.99 -0.32 4.98 -1 6 C-1.042721 4.33388095 -1.04063832 2.66617115 -1 1 C-0.67 0.67 -0.34 0.34 0 0 Z " fill="#1F1F23" transform="translate(669,156)"/>
<path d="M0 0 C0.33 0.99 0.66 1.98 1 3 C0.01 3.99 -0.98 4.98 -2 6 C-2.99 5.67 -3.98 5.34 -5 5 C-4.1875 3.0625 -4.1875 3.0625 -3 1 C-2.01 0.67 -1.02 0.34 0 0 Z " fill="#A1BCC8" transform="translate(37,224)"/>
<path d="M0 0 C0.99 0.33 1.98 0.66 3 1 C1.37660195 2.70884005 -0.29319053 4.37446717 -2 6 C-2.66 6 -3.32 6 -4 6 C-4 5.01 -4 4.02 -4 3 C-2.1875 1.25 -2.1875 1.25 0 0 Z " fill="#ACD1D9" transform="translate(57,201)"/>
<path d="M0 0 C1.65 0.99 3.3 1.98 5 3 C5 2.34 5 1.68 5 1 C5.66 1.33 6.32 1.66 7 2 C6.67 2.66 6.34 3.32 6 4 C5.34 4 4.68 4 4 4 C4 4.66 4 5.32 4 6 C3.01 5.67 2.02 5.34 1 5 C0.67 3.35 0.34 1.7 0 0 Z " fill="#191718" transform="translate(229,139)"/>
<path d="M0 0 C2.31 0.66 4.62 1.32 7 2 C6.67 2.66 6.34 3.32 6 4 C2.625 4.125 2.625 4.125 -1 4 C-1.66 3.34 -2.32 2.68 -3 2 C-2.01 2 -1.02 2 0 2 C0 1.34 0 0.68 0 0 Z " fill="#96C2D9" transform="translate(62,130)"/>
</svg>
